<mxfile host="app.diagrams.net" modified="2020-08-10T08:38:03.528Z" agent="5.0 (X11)" etag="66mmAgDhgG_IcjRnpBm1" version="13.3.5" type="github" pages="3">
  <diagram id="Gm7hvLBUQmAg7F9odShK" name="PC">
    <mxGraphModel dx="1046" dy="613" grid="1" gridSize="10" guides="1" tooltips="1" connect="1" arrows="1" fold="1" page="1" pageScale="1" pageWidth="850" pageHeight="1100" math="0" shadow="0">
      <root>
        <mxCell id="LVDliFWSqMjllBE2lXC4-0" />
        <mxCell id="LVDliFWSqMjllBE2lXC4-1" parent="LVDliFWSqMjllBE2lXC4-0" />
        <mxCell id="2ffBG3hiHQZvzrd5DW8K-0" value="" style="rounded=0;whiteSpace=wrap;html=1;" parent="LVDliFWSqMjllBE2lXC4-1" vertex="1">
          <mxGeometry x="10" y="10" width="780" height="550" as="geometry" />
        </mxCell>
        <mxCell id="2ffBG3hiHQZvzrd5DW8K-10" value="" style="rounded=0;whiteSpace=wrap;html=1;fontSize=14;align=left;" parent="LVDliFWSqMjllBE2lXC4-1" vertex="1">
          <mxGeometry x="23" y="100" width="237" height="350" as="geometry" />
        </mxCell>
        <mxCell id="2ffBG3hiHQZvzrd5DW8K-1" value="" style="rounded=0;whiteSpace=wrap;html=1;" parent="LVDliFWSqMjllBE2lXC4-1" vertex="1">
          <mxGeometry x="23" y="20" width="747" height="70" as="geometry" />
        </mxCell>
        <mxCell id="2ffBG3hiHQZvzrd5DW8K-2" value="" style="verticalLabelPosition=bottom;shadow=0;dashed=0;align=center;html=1;verticalAlign=top;strokeWidth=1;shape=mxgraph.mockup.misc.shoppingCart;strokeColor=#999999;" parent="LVDliFWSqMjllBE2lXC4-1" vertex="1">
          <mxGeometry x="710" y="28" width="50" height="50" as="geometry" />
        </mxCell>
        <mxCell id="2ffBG3hiHQZvzrd5DW8K-3" value="" style="outlineConnect=0;fontColor=#232F3E;gradientColor=none;fillColor=#D05C17;strokeColor=none;dashed=0;verticalLabelPosition=bottom;verticalAlign=top;align=center;html=1;fontSize=12;fontStyle=0;aspect=fixed;pointerEvents=1;shape=mxgraph.aws4.container_registry_image;" parent="LVDliFWSqMjllBE2lXC4-1" vertex="1">
          <mxGeometry x="40" y="110" width="200" height="200" as="geometry" />
        </mxCell>
        <mxCell id="2ffBG3hiHQZvzrd5DW8K-4" value="Сырники со сметаной" style="text;html=1;strokeColor=none;fillColor=none;align=left;verticalAlign=middle;whiteSpace=wrap;rounded=0;fontSize=14;fontStyle=1" parent="LVDliFWSqMjllBE2lXC4-1" vertex="1">
          <mxGeometry x="40" y="320" width="190" height="20" as="geometry" />
        </mxCell>
        <mxCell id="2ffBG3hiHQZvzrd5DW8K-5" value="201 грн" style="text;html=1;strokeColor=none;fillColor=none;align=center;verticalAlign=middle;whiteSpace=wrap;rounded=0;fontSize=14;" parent="LVDliFWSqMjllBE2lXC4-1" vertex="1">
          <mxGeometry x="40" y="363" width="70" height="20" as="geometry" />
        </mxCell>
        <mxCell id="2ffBG3hiHQZvzrd5DW8K-6" value="100 г" style="text;html=1;strokeColor=none;fillColor=none;align=center;verticalAlign=middle;whiteSpace=wrap;rounded=0;fontSize=14;" parent="LVDliFWSqMjllBE2lXC4-1" vertex="1">
          <mxGeometry x="30" y="343" width="70" height="20" as="geometry" />
        </mxCell>
        <mxCell id="2ffBG3hiHQZvzrd5DW8K-7" value="" style="outlineConnect=0;fontColor=#232F3E;gradientColor=none;fillColor=#D05C17;strokeColor=none;dashed=0;verticalLabelPosition=bottom;verticalAlign=top;align=center;html=1;fontSize=12;fontStyle=0;aspect=fixed;pointerEvents=1;shape=mxgraph.aws4.container_registry_image;" parent="LVDliFWSqMjllBE2lXC4-1" vertex="1">
          <mxGeometry x="56" y="28" width="54" height="54" as="geometry" />
        </mxCell>
        <mxCell id="2ffBG3hiHQZvzrd5DW8K-8" value="Text" style="text;html=1;strokeColor=none;fillColor=none;align=center;verticalAlign=middle;whiteSpace=wrap;rounded=0;fontSize=14;" parent="LVDliFWSqMjllBE2lXC4-1" vertex="1">
          <mxGeometry x="130" y="45" width="40" height="20" as="geometry" />
        </mxCell>
        <mxCell id="2ffBG3hiHQZvzrd5DW8K-11" value="&lt;div&gt;Add To Cart&lt;br&gt;&lt;/div&gt;" style="rounded=0;whiteSpace=wrap;html=1;fontSize=14;align=center;" parent="LVDliFWSqMjllBE2lXC4-1" vertex="1">
          <mxGeometry x="55" y="390" width="170" height="50" as="geometry" />
        </mxCell>
      </root>
    </mxGraphModel>
  </diagram>
  <diagram id="VaZSZ3ENz1iNf5gc-wb0" name="mobile">
    <mxGraphModel dx="1046" dy="613" grid="1" gridSize="10" guides="1" tooltips="1" connect="1" arrows="1" fold="1" page="1" pageScale="1" pageWidth="850" pageHeight="1100" math="0" shadow="0">
      <root>
        <mxCell id="0" />
        <mxCell id="1" parent="0" />
        <mxCell id="-urSwHUXW_zK2vvEngsj-1" value="" style="rounded=0;whiteSpace=wrap;html=1;" parent="1" vertex="1">
          <mxGeometry x="40" y="40" width="310" height="550" as="geometry" />
        </mxCell>
        <mxCell id="-urSwHUXW_zK2vvEngsj-2" value="" style="rounded=0;whiteSpace=wrap;html=1;" parent="1" vertex="1">
          <mxGeometry x="40" y="40" width="310" height="70" as="geometry" />
        </mxCell>
        <mxCell id="-urSwHUXW_zK2vvEngsj-3" value="" style="verticalLabelPosition=bottom;shadow=0;dashed=0;align=center;html=1;verticalAlign=top;strokeWidth=1;shape=mxgraph.mockup.misc.shoppingCart;strokeColor=#999999;" parent="1" vertex="1">
          <mxGeometry x="290" y="50" width="50" height="50" as="geometry" />
        </mxCell>
        <mxCell id="-urSwHUXW_zK2vvEngsj-4" value="" style="outlineConnect=0;fontColor=#232F3E;gradientColor=none;fillColor=#D05C17;strokeColor=none;dashed=0;verticalLabelPosition=bottom;verticalAlign=top;align=center;html=1;fontSize=12;fontStyle=0;aspect=fixed;pointerEvents=1;shape=mxgraph.aws4.container_registry_image;" parent="1" vertex="1">
          <mxGeometry x="100" y="130" width="200" height="200" as="geometry" />
        </mxCell>
        <mxCell id="-urSwHUXW_zK2vvEngsj-5" value="Сырники со сметаной" style="text;html=1;strokeColor=none;fillColor=none;align=left;verticalAlign=middle;whiteSpace=wrap;rounded=0;fontSize=14;fontStyle=1" parent="1" vertex="1">
          <mxGeometry x="100" y="340" width="190" height="20" as="geometry" />
        </mxCell>
        <mxCell id="-urSwHUXW_zK2vvEngsj-6" value="201 грн" style="text;html=1;strokeColor=none;fillColor=none;align=center;verticalAlign=middle;whiteSpace=wrap;rounded=0;fontSize=14;" parent="1" vertex="1">
          <mxGeometry x="100" y="383" width="70" height="20" as="geometry" />
        </mxCell>
        <mxCell id="-urSwHUXW_zK2vvEngsj-7" value="100 г" style="text;html=1;strokeColor=none;fillColor=none;align=center;verticalAlign=middle;whiteSpace=wrap;rounded=0;fontSize=14;" parent="1" vertex="1">
          <mxGeometry x="90" y="363" width="70" height="20" as="geometry" />
        </mxCell>
        <mxCell id="-urSwHUXW_zK2vvEngsj-8" value="" style="outlineConnect=0;fontColor=#232F3E;gradientColor=none;fillColor=#D05C17;strokeColor=none;dashed=0;verticalLabelPosition=bottom;verticalAlign=top;align=center;html=1;fontSize=12;fontStyle=0;aspect=fixed;pointerEvents=1;shape=mxgraph.aws4.container_registry_image;" parent="1" vertex="1">
          <mxGeometry x="116" y="48" width="54" height="54" as="geometry" />
        </mxCell>
        <mxCell id="-urSwHUXW_zK2vvEngsj-9" value="Text" style="text;html=1;strokeColor=none;fillColor=none;align=center;verticalAlign=middle;whiteSpace=wrap;rounded=0;fontSize=14;" parent="1" vertex="1">
          <mxGeometry x="190" y="65" width="40" height="20" as="geometry" />
        </mxCell>
      </root>
    </mxGraphModel>
  </diagram>
  <diagram id="xMlPTnmRBBqKG5DJGhPq" name="site">
    <mxGraphModel dx="1046" dy="613" grid="1" gridSize="10" guides="1" tooltips="1" connect="1" arrows="1" fold="1" page="1" pageScale="1" pageWidth="850" pageHeight="1100" math="0" shadow="0">
      <root>
        <mxCell id="LTesGqevaBhVUcS6P-nu-0" />
        <mxCell id="LTesGqevaBhVUcS6P-nu-1" parent="LTesGqevaBhVUcS6P-nu-0" />
        <mxCell id="LTesGqevaBhVUcS6P-nu-2" value="" style="rounded=0;whiteSpace=wrap;html=1;fontSize=14;align=center;" vertex="1" parent="LTesGqevaBhVUcS6P-nu-1">
          <mxGeometry x="50" y="30" width="690" height="490" as="geometry" />
        </mxCell>
        <mxCell id="LTesGqevaBhVUcS6P-nu-9" value="" style="group" vertex="1" connectable="0" parent="LTesGqevaBhVUcS6P-nu-1">
          <mxGeometry x="510" y="130" width="190" height="320" as="geometry" />
        </mxCell>
        <mxCell id="LTesGqevaBhVUcS6P-nu-5" value="" style="rounded=0;whiteSpace=wrap;html=1;fontSize=14;align=center;" vertex="1" parent="LTesGqevaBhVUcS6P-nu-9">
          <mxGeometry width="190" height="320" as="geometry" />
        </mxCell>
        <mxCell id="LTesGqevaBhVUcS6P-nu-8" value="&lt;h1&gt;&lt;font style=&quot;font-size: 16px&quot;&gt;Subscription&lt;/font&gt;&lt;/h1&gt;&lt;p style=&quot;font-size: 12px&quot;&gt;50$/month&lt;br&gt;&lt;/p&gt;&lt;p&gt;2 month free&lt;br&gt;&lt;/p&gt;&lt;p&gt;Site&lt;/p&gt;&lt;div&gt;Menu&lt;/div&gt;&lt;div&gt;&lt;br&gt;&lt;/div&gt;&lt;div&gt;Orders&lt;br&gt;&lt;/div&gt;" style="text;html=1;strokeColor=none;fillColor=none;spacing=5;spacingTop=-20;whiteSpace=wrap;overflow=hidden;rounded=0;fontSize=14;align=center;" vertex="1" parent="LTesGqevaBhVUcS6P-nu-9">
          <mxGeometry x="24.782608695652172" y="15" width="140.43478260869566" height="290" as="geometry" />
        </mxCell>
        <mxCell id="LTesGqevaBhVUcS6P-nu-11" value="" style="group" vertex="1" connectable="0" parent="LTesGqevaBhVUcS6P-nu-1">
          <mxGeometry x="300" y="130" width="190" height="320" as="geometry" />
        </mxCell>
        <mxCell id="LTesGqevaBhVUcS6P-nu-12" value="" style="rounded=0;whiteSpace=wrap;html=1;fontSize=14;align=center;" vertex="1" parent="LTesGqevaBhVUcS6P-nu-11">
          <mxGeometry width="190" height="320" as="geometry" />
        </mxCell>
        <mxCell id="LTesGqevaBhVUcS6P-nu-13" value="&lt;h1&gt;&lt;font style=&quot;font-size: 16px&quot;&gt;Pay as you go&lt;br&gt;&lt;/font&gt;&lt;/h1&gt;&lt;p style=&quot;font-size: 12px&quot;&gt;2%&lt;br&gt;&lt;/p&gt;&lt;p&gt;2 month free&lt;br&gt;&lt;/p&gt;&lt;p&gt;Site&lt;/p&gt;&lt;div&gt;Menu&lt;/div&gt;&lt;div&gt;&lt;br&gt;&lt;/div&gt;&lt;div&gt;Orders&lt;br&gt;&lt;/div&gt;" style="text;html=1;strokeColor=none;fillColor=none;spacing=5;spacingTop=-20;whiteSpace=wrap;overflow=hidden;rounded=0;fontSize=14;align=center;" vertex="1" parent="LTesGqevaBhVUcS6P-nu-11">
          <mxGeometry x="24.782608695652172" y="15" width="140.43478260869566" height="290" as="geometry" />
        </mxCell>
        <mxCell id="LTesGqevaBhVUcS6P-nu-15" value="" style="group" vertex="1" connectable="0" parent="LTesGqevaBhVUcS6P-nu-1">
          <mxGeometry x="90" y="130" width="190" height="320" as="geometry" />
        </mxCell>
        <mxCell id="LTesGqevaBhVUcS6P-nu-4" value="" style="rounded=0;whiteSpace=wrap;html=1;fontSize=14;align=center;" vertex="1" parent="LTesGqevaBhVUcS6P-nu-15">
          <mxGeometry width="190" height="320" as="geometry" />
        </mxCell>
        <mxCell id="LTesGqevaBhVUcS6P-nu-7" value="&lt;h1&gt;Free&lt;/h1&gt;&lt;p&gt;Site&lt;/p&gt;&lt;p&gt;Menu&lt;/p&gt;&lt;p&gt;Orders&lt;/p&gt;" style="text;html=1;strokeColor=none;fillColor=none;spacing=5;spacingTop=-20;whiteSpace=wrap;overflow=hidden;rounded=0;fontSize=14;align=center;" vertex="1" parent="LTesGqevaBhVUcS6P-nu-15">
          <mxGeometry x="47.5" y="20" width="95" height="280" as="geometry" />
        </mxCell>
      </root>
    </mxGraphModel>
  </diagram>
</mxfile>
